<svg xmlns="http://www.w3.org/2000/svg" viewBox="0 0 205.34 46.33"><defs><style>.cls-1{fill:#1d1d1b}.cls-2{fill:#47ac40}</style></defs><g id="Layer_2" data-name="Layer 2"><g id="Livello_1" data-name="Livello 1"><path class="cls-1" d="M4.11 42.91a1.63 1.63 0 0 1-1.84 1.68H1.18v1.63H0v-5h2.27a1.63 1.63 0 0 1 1.84 1.69zm-1.18 0a.65.65 0 0 0-.74-.68h-1v1.36h1c.46 0 .74-.23.74-.68zm4.92 1.41v-3.09H9v3.11a.88.88 0 0 0 1 1 .89.89 0 0 0 1-1v-3.11h1.18v3.09a1.92 1.92 0 0 1-2.17 2 1.94 1.94 0 0 1-2.16-2zm12.56 1.9h-1.22a1.21 1.21 0 0 1-.12-.55v-.56c0-.6-.29-.73-.74-.73h-1v1.84h-1.17v-5h2.36c1.26 0 1.81.64 1.81 1.45a1.21 1.21 0 0 1-.81 1.18c.58.19.69.59.71 1.12v.7a1 1 0 0 0 .18.55zm-2-2.72a.64.64 0 0 0 .72-.67c0-.43-.27-.65-.74-.65h-1v1.32zm6.97-1.21v.9h2.38v1h-2.38v1H28v1.06h-3.8v-5H28v1.06zm11.38-1.06H38v5h-1.24zm9.83 2.5A2.3 2.3 0 0 1 44 46.22h-2v-5h2a2.3 2.3 0 0 1 2.59 2.51zm-1.24 0c0-1-.52-1.5-1.33-1.5h-.84v3H44c.83-.01 1.35-.47 1.35-1.5zm6.25-1.44v.9H54v1h-2.4v1h2.62v1.06h-3.8v-5h3.81v1.06zm10.84-1.06v5h-1.27l-1.22-2c-.28-.46-.55-.9-.78-1.36v3.31h-1.1v-5h1.27l1.22 2c.24.39.55.91.78 1.37v-3.32zm7.99 1.06h-1.54v3.93H67.7v-3.93h-1.52v-1.06h4.25zm3.73-1.06h1.18v5h-1.18zm9.17 1.06h-1.54v3.93H80.6v-3.93h-1.52v-1.06h4.25zm8.24-1.06l-1.85 3.05v1.94h-1.19v-1.94l-1.87-3.05H88l.44.72c.23.42.48.84.71 1.24.23-.41.46-.84.69-1.24l.42-.72zM94.22 45h1.23v1.21h-1.23z"/><path class="cls-2" d="M39.84 18.39v15.79H31V20c0-2.31-.72-3.7-3.12-3.7-2 0-3.55 1.15-3.55 4.13v13.75H15.5V20c0-2.31-.71-3.7-3.12-3.7-2 0-3.55 1.15-3.55 4.13v13.75H0V9.41h8.64v3.26a8.48 8.48 0 0 1 7-3.84c3.46 0 6.19 1.44 7.63 4.28a10.29 10.29 0 0 1 7.88-4.28c5.14 0 8.69 3.17 8.69 9.56zm55.61-.24v16h-8.83V20c0-2.31-.87-3.7-3.37-3.7-2 0-3.88 1.15-3.88 4.13v13.75h-8.84V9.41h8.64v3.26a9.39 9.39 0 0 1 7.73-3.84c4.71 0 8.55 2.93 8.55 9.32zM179 24.34h-18.15a4.75 4.75 0 0 0 4.94 4.17 4.66 4.66 0 0 0 4.37-2.16h8.26c-1.39 5.43-6.63 8.4-12.63 8.4-8 0-13.34-5.13-13.34-13s5.23-13 13.25-13S179 14 179 22.75zm-18.14-5.23h9.65a4.67 4.67 0 0 0-4.9-4 4.49 4.49 0 0 0-4.76 4z"/><path class="cls-2" d="M205.34 24.34h-18.15a4.77 4.77 0 0 0 4.94 4.17 4.66 4.66 0 0 0 4.37-2.16h8.26c-1.39 5.43-6.63 8.4-12.63 8.4-8 0-13.34-5.13-13.34-13s5.23-13 13.25-13 13.3 5.14 13.3 13.92zm-18.15-5.23h9.65a4.66 4.66 0 0 0-4.9-4c-2.35-.04-4.17 1.12-4.75 4zm-43.1-1.34l7.83-8.36h-9.89l-6.87 7.88V0h-8.59v34.18h8.59v-7.34l2.97-3.17 6.49 10.51h10.04l-10.57-16.41zm-41.9 13.93a9.31 9.31 0 0 1 7-4.23 6.17 6.17 0 0 1-4-5.86 5.86 5.86 0 1 1 11.7 0 6.17 6.17 0 0 1-4 5.85 9.31 9.31 0 0 1 7 4.21v.07a13 13 0 0 0 4.46-9.74 13.35 13.35 0 0 0-26.69 0 12.94 12.94 0 0 0 4.52 9.81zM55.2 8.68a13.23 13.23 0 0 0-13.34 13.11 13.35 13.35 0 0 0 26.69 0A13.23 13.23 0 0 0 55.2 8.68zm2.15 18.86l-.4.16a5.27 5.27 0 0 1-.93.21h-.82a5.62 5.62 0 0 1-.92-.09h-.09a6.1 6.1 0 0 1-4.86-6.09 6.09 6.09 0 0 1 4.86-6.08h.09a5.62 5.62 0 0 1 .92-.08h.16a4.46 4.46 0 0 1 .63.05 4.51 4.51 0 0 1 .93.21c.14 0 .27.09.4.15a6.3 6.3 0 0 1 0 11.5z"/></g></g></svg>