<svg xmlns="http://www.w3.org/2000/svg" viewBox="0 0 205.34 46.33"><defs><style>.cls-1{fill:#1d1d1b;}.cls-2{fill:#47ac40;}</style></defs><g id="Layer_2" data-name="Layer 2"><g id="Livello_1" data-name="Livello 1"><path class="cls-1" d="M4.11,42.91a1.63,1.63,0,0,1-1.84,1.68H1.18v1.63H0v-5H2.27A1.63,1.63,0,0,1,4.11,42.91Zm-1.18,0a.65.65,0,0,0-.74-.68h-1v1.36h1C2.65,43.59,2.93,43.36,2.93,42.91Z"/><path class="cls-1" d="M7.85,44.32V41.23H9v3.11a.88.88,0,0,0,1,1,.89.89,0,0,0,1-1V41.23h1.18v3.09a1.92,1.92,0,0,1-2.17,2A1.94,1.94,0,0,1,7.85,44.32Z"/><path class="cls-1" d="M20.41,46.22H19.19a1.21,1.21,0,0,1-.12-.55l0-.56c0-.6-.29-.73-.74-.73h-1v1.84H16.16v-5h2.36c1.26,0,1.81.64,1.81,1.45a1.21,1.21,0,0,1-.81,1.18c.58.19.69.59.71,1.12l0,.7A1,1,0,0,0,20.41,46.22Zm-2-2.72a.64.64,0,0,0,.72-.67c0-.43-.27-.65-.74-.65h-1V43.5Z"/><path class="cls-1" d="M25.38,42.29v.9h2.38v1H25.38v1H28v1.06h-3.8v-5H28v1.06Z"/><path class="cls-1" d="M36.76,41.23H38v5H36.76Z"/><path class="cls-1" d="M46.59,43.73A2.3,2.3,0,0,1,44,46.22H42v-5h2A2.3,2.3,0,0,1,46.59,43.73Zm-1.24,0c0-1-.52-1.5-1.33-1.5h-.84v3H44C44.83,45.22,45.35,44.76,45.35,43.73Z"/><path class="cls-1" d="M51.6,42.29v.9H54v1H51.6v1h2.62v1.06h-3.8v-5h3.81v1.06Z"/><path class="cls-1" d="M62.44,41.23v5H61.17l-1.22-2c-.28-.46-.55-.9-.78-1.36,0,.81,0,1.54,0,2.31v1H58.07v-5h1.27l1.22,2c.24.39.55.91.78,1.37,0-.81,0-1.54,0-2.31V41.23Z"/><path class="cls-1" d="M70.43,42.29H68.89v3.93H67.7V42.29H66.18V41.23h4.25Z"/><path class="cls-1" d="M74.16,41.23h1.18v5H74.16Z"/><path class="cls-1" d="M83.33,42.29H81.79v3.93H80.6V42.29H79.08V41.23h4.25Z"/><path class="cls-1" d="M91.57,41.23l-1.85,3.05v1.94H88.53V44.28l-1.87-3.05H88l.44.72c.23.42.48.84.71,1.24.23-.41.46-.84.69-1.24l.42-.72Z"/><path class="cls-1" d="M94.22,45h1.23v1.21H94.22Z"/><path class="cls-2" d="M39.84,18.39V34.18H31V20c0-2.31-.72-3.7-3.12-3.7-2,0-3.55,1.15-3.55,4.13V34.18H15.5V20c0-2.31-.71-3.7-3.12-3.7-2,0-3.55,1.15-3.55,4.13V34.18H0V9.41H8.64v3.26a8.48,8.48,0,0,1,7-3.84c3.46,0,6.19,1.44,7.63,4.28a10.29,10.29,0,0,1,7.88-4.28C36.29,8.83,39.84,12,39.84,18.39Z"/><path class="cls-2" d="M95.45,18.15v16H86.62V20c0-2.31-.87-3.7-3.37-3.7-2,0-3.88,1.15-3.88,4.13V34.18H70.53V9.41h8.64v3.26A9.39,9.39,0,0,1,86.9,8.83C91.61,8.83,95.45,11.76,95.45,18.15Z"/><path class="cls-2" d="M179,24.34H160.85a4.75,4.75,0,0,0,4.94,4.17,4.66,4.66,0,0,0,4.37-2.16h8.26c-1.39,5.43-6.63,8.4-12.63,8.4-8,0-13.34-5.13-13.34-13s5.23-13,13.25-13S179,14,179,22.75Zm-18.14-5.23h9.65a4.67,4.67,0,0,0-4.9-4A4.49,4.49,0,0,0,160.85,19.11Z"/><path class="cls-2" d="M205.34,24.34H187.19a4.77,4.77,0,0,0,4.94,4.17,4.66,4.66,0,0,0,4.37-2.16h8.26c-1.39,5.43-6.63,8.4-12.63,8.4-8,0-13.34-5.13-13.34-13s5.23-13,13.25-13,13.3,5.14,13.3,13.92Zm-18.15-5.23h9.65a4.66,4.66,0,0,0-4.9-4C189.59,15.07,187.77,16.23,187.19,19.11Z"/><polygon class="cls-2" points="144.09 17.77 151.92 9.41 142.03 9.41 135.16 17.29 135.16 0 126.57 0 126.57 34.18 135.16 34.18 135.16 28.27 135.16 26.84 138.13 23.67 144.62 34.18 154.66 34.18 144.09 17.77"/><path class="cls-2" d="M102.19,31.7a9.31,9.31,0,0,1,7-4.23,6.17,6.17,0,0,1-4-5.86,5.86,5.86,0,1,1,11.7,0,6.17,6.17,0,0,1-4,5.85,9.31,9.31,0,0,1,7,4.21l0,.07A13,13,0,0,0,124.35,22a13.35,13.35,0,0,0-26.69,0,12.94,12.94,0,0,0,4.52,9.81Z"/><path class="cls-2" d="M55.2,8.68A13.23,13.23,0,0,0,41.86,21.79a13.35,13.35,0,0,0,26.69,0A13.23,13.23,0,0,0,55.2,8.68Zm2.15,18.86-.4.16h0a5.27,5.27,0,0,1-.93.21l-.63,0H55.2a5.62,5.62,0,0,1-.92-.09h-.09a6.1,6.1,0,0,1-4.86-6.09,6.09,6.09,0,0,1,4.86-6.08l.09,0a5.62,5.62,0,0,1,.92-.08h.16a4.46,4.46,0,0,1,.63.05,4.51,4.51,0,0,1,.93.21h0c.14,0,.27.09.4.15a6.3,6.3,0,0,1,0,11.5Z"/></g></g></svg>